# xmcd
#
# Track frame offsets:
#	150
#	13317
#	34197
#	44858
#	56028
#	73272
#	90379
#	100481
#	112849
#	123543
#	146995
#	158875
#	173230
#	184672
#	191627
#	205745
#	222874
#	238015
#	252477
#	281346
#
# Disc length: 4015 seconds
#
# Revision: 1
# Processed by: cddbd v1.5.2PL0 Copyright (c) Steve Scherf et al.
# Submitted via: audiograbber 1.83.01
#
DISCID=360fad14
DTITLE=Cabezas Negras - Otra Vista
DYEAR=2015
DGENRE=
TTITLE0=Garota de Ipanema
TTITLE1=Black Orpheus
TTITLE2=Doce Morrer no Mar
TTITLE3=Desafinado
TTITLE4=Retrato Brasileño
TTITLE5=Ultimo Desejo
TTITLE6=Milongueo del Ayer
TTITLE7=Desde el Alma
TTITLE8=Por una Cabeza
TTITLE9=Adiós Nonino
TTITLE10=Amar y Vivir
TTITLE11=El Choclo
TTITLE12=Mi Favorita
TTITLE13=Lágrima
TTITLE14=Romance Anónimo
TTITLE15=Vals de Amelie
TTITLE16=Comptine d'un Autre Été
TTITLE17=Georgia
TTITLE18=Tears in Heaven
TTITLE19=Cantaoulupe Island
EXTD=
EXTT0=
EXTT1=
EXTT2=
EXTT3=
EXTT4=
EXTT5=
EXTT6=
EXTT7=
EXTT8=
EXTT9=
EXTT10=
EXTT11=
EXTT12=
EXTT13=
EXTT14=
EXTT15=
EXTT16=
EXTT17=
EXTT18=
EXTT19=
PLAYORDER=
